<?xml version="1.0" encoding="UTF-8"?>
<svg xmlns="http://www.w3.org/2000/svg" width="1313" height="266" viewBox="0 0 1313 266" role="img" aria-label="IT Solutions Leitner Logo">
  <rect x="0" y="0" width="1313" height="266" fill="#FFFFFF"/>
  <path d="M 21.00 236.38 L 20.00 236.46 L 19.78 236.00 L 19.92 235.00 L 19.72 224.00 L 19.66 188.00 L 19.79 58.00 L 19.63 21.00 L 20.00 20.31 L 21.00 19.93 L 45.00 19.81 L 46.00 20.12 L 46.39 21.00 L 46.36 203.00 L 46.23 211.00 L 34.46 223.00 L 22.00 235.18 L 21.00 236.38 Z M 105.00 167.63 L 104.48 167.00 L 104.34 160.00 L 104.35 50.00 L 104.19 49.00 L 104.00 48.77 L 103.00 48.47 L 66.00 48.57 L 65.37 48.00 L 65.28 47.00 L 65.32 21.00 L 66.00 20.00 L 144.00 19.82 L 183.00 20.00 L 186.00 19.98 L 188.00 19.76 L 188.42 20.00 L 188.43 21.00 L 168.63 41.00 L 162.00 48.29 L 161.00 48.61 L 133.00 48.55 L 132.00 48.61 L 131.53 49.00 L 131.37 50.00 L 131.32 65.00 L 131.30 141.00 L 119.00 153.16 L 113.55 159.00 L 105.00 167.63 Z M 318.00 167.42 L 310.00 167.41 L 309.40 167.00 L 309.19 166.00 L 309.16 113.00 L 310.00 111.95 L 318.00 111.84 L 318.63 113.00 L 318.68 166.00 L 318.48 167.00 L 318.00 167.42 Z M 359.00 167.41 L 351.00 167.50 L 350.00 167.11 L 349.71 166.00 L 349.79 122.00 L 349.00 121.32 L 335.00 121.37 L 334.00 121.02 L 333.73 120.00 L 333.83 114.00 L 333.70 113.00 L 334.00 112.38 L 334.78 112.00 L 350.00 111.84 L 374.00 111.92 L 375.00 111.95 L 375.81 113.00 L 375.67 114.00 L 375.77 120.00 L 375.43 121.00 L 375.00 121.27 L 361.00 121.30 L 360.00 121.55 L 359.65 122.00 L 359.62 166.00 L 359.44 167.00 L 359.00 167.41 Z M 439.00 168.10 L 435.00 168.04 L 431.00 167.46 L 427.00 166.41 L 424.00 165.17 L 421.00 163.55 L 416.55 160.00 L 416.13 159.00 L 422.00 152.54 L 423.00 152.95 L 424.00 154.07 L 427.00 156.46 L 429.00 157.55 L 432.00 158.53 L 436.00 159.14 L 438.00 159.16 L 442.00 158.61 L 445.00 157.63 L 447.20 156.00 L 448.45 154.00 L 448.79 152.00 L 448.59 150.00 L 448.34 149.00 L 446.71 147.00 L 445.00 145.85 L 444.00 145.51 L 437.00 143.69 L 435.00 143.35 L 428.00 141.33 L 424.00 139.32 L 421.29 137.00 L 419.64 135.00 L 418.53 133.00 L 417.69 130.00 L 417.48 128.00 L 417.58 126.00 L 418.57 122.00 L 419.57 120.00 L 420.90 118.00 L 423.00 115.76 L 426.00 113.71 L 429.00 112.46 L 433.00 111.40 L 438.00 111.01 L 440.00 111.06 L 445.00 111.68 L 450.00 113.54 L 452.00 114.56 L 455.00 116.73 L 456.32 118.00 L 456.68 119.00 L 456.07 120.00 L 453.00 123.45 L 451.00 125.18 L 449.00 123.55 L 447.00 122.38 L 445.00 121.42 L 442.00 120.50 L 439.00 120.29 L 435.00 120.34 L 433.00 120.69 L 431.00 121.46 L 429.00 123.03 L 427.75 125.00 L 427.51 126.00 L 427.66 128.00 L 428.67 130.00 L 430.00 131.36 L 432.00 132.41 L 435.00 133.36 L 437.00 133.62 L 439.00 134.25 L 442.00 134.72 L 446.00 135.86 L 451.00 137.84 L 452.75 139.00 L 455.24 141.00 L 457.36 144.00 L 458.33 146.00 L 459.00 151.00 L 458.32 156.00 L 456.43 160.00 L 453.72 163.00 L 452.00 164.33 L 448.00 166.33 L 444.00 167.43 L 439.00 168.10 Z M 502.00 168.13 L 498.00 168.26 L 492.00 167.45 L 488.00 166.09 L 485.00 164.52 L 483.00 163.20 L 481.00 161.58 L 478.47 159.00 L 477.63 158.00 L 475.69 155.00 L 473.63 150.00 L 473.25 148.00 L 472.71 147.00 L 472.57 146.00 L 471.88 140.00 L 472.72 133.00 L 474.65 127.00 L 476.89 123.00 L 480.16 119.00 L 482.25 117.00 L 484.00 115.66 L 488.00 113.49 L 490.00 112.66 L 495.00 111.40 L 500.00 111.18 L 503.00 111.37 L 505.00 111.74 L 508.00 112.58 L 511.00 113.68 L 513.00 114.71 L 516.00 116.62 L 518.79 119.00 L 520.59 121.00 L 521.34 122.00 L 523.60 126.00 L 524.48 128.00 L 525.48 131.00 L 526.44 136.00 L 526.61 139.00 L 526.54 142.00 L 525.49 148.00 L 524.19 152.00 L 523.29 154.00 L 521.47 157.00 L 519.93 159.00 L 516.91 162.00 L 515.00 163.52 L 512.00 165.37 L 510.00 166.31 L 507.00 167.25 L 502.00 168.13 Z M 579.00 167.14 L 578.00 167.46 L 544.00 167.42 L 542.83 167.00 L 542.62 166.00 L 542.70 113.00 L 543.00 112.41 L 544.00 111.93 L 551.00 111.86 L 552.00 111.96 L 552.67 113.00 L 552.45 157.00 L 553.00 157.76 L 554.00 158.10 L 578.11 158.00 L 579.00 158.39 L 579.32 159.00 L 579.37 166.00 L 579.00 167.14 Z M 617.00 168.06 L 614.00 168.27 L 612.00 168.15 L 607.00 167.16 L 603.00 165.60 L 601.00 164.50 L 597.91 162.00 L 595.66 159.00 L 594.63 157.00 L 593.45 154.00 L 592.54 151.00 L 591.89 146.00 L 592.03 137.00 L 591.88 113.00 L 593.00 111.84 L 601.00 111.87 L 602.00 112.97 L 601.86 114.00 L 601.73 145.00 L 602.46 151.00 L 603.81 154.00 L 604.54 155.00 L 607.00 157.17 L 610.00 158.50 L 614.00 159.05 L 619.00 158.45 L 621.00 157.57 L 623.00 156.23 L 624.22 155.00 L 626.18 152.00 L 627.18 149.00 L 627.55 146.00 L 627.49 113.00 L 627.96 112.00 L 636.00 111.93 L 637.00 112.07 L 637.46 113.00 L 637.41 146.00 L 637.16 149.00 L 636.34 153.00 L 634.21 158.00 L 631.00 161.96 L 629.00 163.68 L 628.00 164.43 L 624.00 166.39 L 621.00 167.38 L 617.00 168.06 Z M 677.00 167.43 L 669.00 167.41 L 668.40 167.00 L 668.15 166.00 L 667.88 128.00 L 668.07 122.00 L 667.00 121.28 L 653.00 121.30 L 652.26 121.00 L 651.80 120.00 L 651.74 113.00 L 652.00 112.52 L 653.00 112.11 L 658.00 111.92 L 693.00 111.84 L 693.84 113.00 L 693.74 120.00 L 693.49 121.00 L 693.00 121.34 L 679.00 121.38 L 677.88 122.00 L 677.79 166.00 L 677.56 167.00 L 677.00 167.43 Z M 718.00 167.46 L 710.00 167.56 L 709.00 167.15 L 708.74 166.00 L 708.85 145.00 L 708.70 113.00 L 709.00 112.32 L 710.00 111.85 L 711.00 111.99 L 718.00 112.00 L 718.63 113.00 L 718.51 114.00 L 718.68 166.00 L 718.52 167.00 L 718.00 167.46 Z M 765.00 168.11 L 763.00 168.33 L 760.00 168.30 L 754.00 167.17 L 750.00 165.54 L 746.00 163.21 L 744.00 161.44 L 741.68 159.00 L 740.83 158.00 L 738.92 155.00 L 737.54 152.00 L 736.04 148.00 L 735.23 144.00 L 735.02 139.00 L 735.21 136.00 L 735.84 132.00 L 737.20 128.00 L 740.00 122.64 L 742.83 119.00 L 747.00 115.61 L 749.00 114.43 L 753.00 112.61 L 758.00 111.40 L 763.00 111.02 L 768.00 111.59 L 774.00 113.66 L 776.00 114.70 L 779.00 116.74 L 782.39 120.00 L 785.25 124.00 L 785.61 125.00 L 786.27 126.00 L 788.00 130.24 L 789.32 135.00 L 789.47 141.00 L 789.31 144.00 L 789.00 145.71 L 788.22 149.00 L 787.08 152.00 L 786.16 154.00 L 784.00 157.53 L 782.03 160.00 L 779.98 162.00 L 778.00 163.51 L 775.00 165.28 L 772.00 166.54 L 769.00 167.47 L 765.00 168.11 Z M 849.00 167.41 L 842.00 167.35 L 840.94 167.00 L 838.40 163.00 L 832.61 155.00 L 829.37 150.00 L 822.79 141.00 L 818.21 134.00 L 816.68 132.00 L 816.19 131.00 L 815.00 129.49 L 814.46 130.00 L 814.41 131.00 L 814.43 166.00 L 814.29 167.00 L 814.00 167.35 L 813.00 167.49 L 806.00 167.54 L 805.00 167.29 L 804.77 167.00 L 804.68 166.00 L 804.63 154.00 L 804.63 113.00 L 805.00 112.34 L 806.00 111.97 L 813.00 111.78 L 814.00 111.80 L 814.21 112.00 L 815.14 113.00 L 817.66 117.00 L 821.37 122.00 L 826.64 130.00 L 830.38 135.00 L 834.84 142.00 L 839.00 147.70 L 840.00 147.65 L 840.24 147.00 L 840.23 119.00 L 840.01 113.00 L 841.00 111.87 L 849.18 112.00 L 849.85 113.00 L 849.79 132.00 L 849.96 143.00 L 849.82 152.00 L 850.04 166.00 L 849.72 167.00 L 849.00 167.41 Z M 889.00 168.16 L 887.00 168.28 L 884.00 168.08 L 880.00 167.44 L 876.00 166.20 L 872.00 164.21 L 869.00 162.31 L 866.36 160.00 L 865.80 159.00 L 871.00 153.32 L 872.00 152.49 L 875.00 155.26 L 878.00 157.19 L 881.00 158.35 L 886.00 159.27 L 889.00 159.21 L 893.00 158.39 L 895.00 157.52 L 896.90 156.00 L 898.14 154.00 L 898.59 152.00 L 898.39 150.00 L 897.43 148.00 L 896.00 146.54 L 895.00 145.85 L 892.00 144.62 L 881.00 142.18 L 878.00 141.21 L 876.00 140.35 L 874.00 139.31 L 871.00 136.73 L 868.73 134.00 L 867.79 132.00 L 867.16 128.00 L 867.82 123.00 L 868.70 121.00 L 870.65 118.00 L 873.00 115.65 L 876.00 113.73 L 878.00 112.81 L 882.00 111.61 L 885.00 111.24 L 888.00 111.16 L 893.00 111.54 L 897.00 112.69 L 901.00 114.43 L 903.00 115.59 L 905.96 118.00 L 906.34 119.00 L 901.00 124.84 L 900.00 124.92 L 897.00 122.54 L 893.00 120.72 L 891.00 120.36 L 887.00 120.15 L 884.00 120.38 L 881.00 121.46 L 878.97 123.00 L 877.67 125.00 L 877.51 127.00 L 877.82 129.00 L 878.61 130.00 L 880.00 131.25 L 882.00 132.43 L 884.00 133.14 L 888.00 133.89 L 895.00 135.62 L 898.00 136.61 L 900.00 137.56 L 903.00 139.47 L 905.53 142.00 L 907.35 145.00 L 908.00 147.05 L 908.51 150.00 L 908.27 154.00 L 907.37 157.00 L 906.48 159.00 L 905.32 161.00 L 904.46 162.00 L 902.00 164.09 L 900.00 165.29 L 898.00 166.19 L 894.00 167.39 L 889.00 168.16 Z M 500.48 159.00 L 504.00 158.38 L 507.00 157.18 L 508.00 156.57 L 510.00 155.17 L 511.00 154.19 L 513.47 151.00 L 514.52 149.00 L 515.57 146.00 L 516.25 142.00 L 516.38 137.00 L 515.40 132.00 L 514.49 130.00 L 512.55 127.00 L 509.68 124.00 L 508.00 122.70 L 506.00 121.62 L 503.00 120.63 L 500.00 120.35 L 496.00 120.54 L 492.00 121.91 L 489.00 123.64 L 486.59 126.00 L 484.64 129.00 L 482.68 134.00 L 482.16 140.00 L 482.54 145.00 L 484.00 148.89 L 485.65 152.00 L 487.00 153.76 L 489.24 156.00 L 491.00 157.17 L 494.00 158.41 L 499.00 159.13 L 500.48 159.00 Z M 767.73 158.00 L 770.00 157.09 L 773.00 155.21 L 775.21 153.00 L 777.01 150.00 L 778.20 147.00 L 779.15 143.00 L 779.30 139.00 L 779.18 136.00 L 779.00 135.28 L 777.17 130.00 L 776.10 128.00 L 773.67 125.00 L 771.00 122.79 L 769.00 121.70 L 765.00 120.41 L 761.00 120.34 L 758.00 120.73 L 755.00 121.74 L 753.00 122.85 L 752.00 123.63 L 750.51 125.00 L 748.75 127.00 L 746.48 131.00 L 746.00 132.31 L 745.44 135.00 L 745.15 138.00 L 745.19 143.00 L 745.96 147.00 L 747.90 151.00 L 749.35 153.00 L 752.00 155.65 L 755.00 157.55 L 758.00 158.50 L 762.00 158.88 L 766.00 158.54 L 767.73 158.00 Z" fill="#080808" fill-rule="evenodd"/>
  <path d="M 205.00 189.41 L 165.00 189.47 L 164.00 189.30 L 163.70 189.00 L 163.52 188.00 L 163.40 112.00 L 163.44 72.00 L 163.50 71.00 L 163.89 70.00 L 167.21 67.00 L 170.87 63.00 L 183.00 50.72 L 201.23 33.00 L 203.00 31.19 L 204.00 29.74 L 205.00 29.32 L 205.49 30.00 L 205.52 31.00 L 205.59 188.00 L 205.44 189.00 L 205.00 189.41 Z M 990.00 167.25 L 960.00 167.40 L 957.00 167.35 L 956.00 167.24 L 955.70 167.00 L 955.46 166.00 L 955.40 161.00 L 955.41 113.00 L 956.00 112.14 L 964.00 112.00 L 965.17 113.00 L 965.06 132.00 L 964.88 135.00 L 965.17 146.00 L 964.77 157.00 L 966.00 158.11 L 987.00 158.44 L 990.00 158.25 L 990.48 159.00 L 990.48 160.00 L 990.43 166.00 L 990.25 167.00 L 990.00 167.25 Z M 1040.00 167.35 L 1014.00 167.41 L 1007.00 167.31 L 1005.87 167.00 L 1005.57 166.00 L 1005.55 164.00 L 1005.50 113.00 L 1006.00 112.22 L 1016.00 111.99 L 1035.00 112.24 L 1038.00 112.12 L 1040.00 111.80 L 1040.98 113.00 L 1040.72 120.00 L 1040.00 121.14 L 1016.00 121.32 L 1015.36 122.00 L 1015.33 123.00 L 1015.33 132.00 L 1015.42 133.00 L 1016.00 133.58 L 1023.00 133.76 L 1030.00 133.61 L 1030.98 134.00 L 1031.31 135.00 L 1031.24 142.00 L 1030.51 143.00 L 1030.00 143.27 L 1017.00 143.31 L 1016.00 143.38 L 1015.38 144.00 L 1015.34 157.00 L 1016.00 158.04 L 1017.00 158.24 L 1040.00 158.17 L 1041.00 158.67 L 1041.25 159.00 L 1041.28 160.00 L 1041.26 166.00 L 1040.85 167.00 L 1040.00 167.35 Z M 1067.00 167.24 L 1059.00 167.39 L 1058.37 167.00 L 1057.88 166.00 L 1058.11 115.00 L 1057.91 113.00 L 1059.00 111.94 L 1066.00 111.76 L 1067.00 111.88 L 1067.51 113.00 L 1067.47 166.00 L 1067.24 167.00 L 1067.00 167.24 Z M 1107.00 167.30 L 1099.00 167.28 L 1098.66 167.00 L 1098.33 166.00 L 1098.48 154.00 L 1098.42 122.00 L 1098.00 121.56 L 1097.00 121.34 L 1084.00 121.28 L 1083.31 121.00 L 1082.77 120.00 L 1082.76 113.00 L 1084.00 111.80 L 1085.00 112.08 L 1091.00 112.21 L 1104.00 111.94 L 1116.00 112.19 L 1119.00 112.14 L 1121.00 111.88 L 1122.00 112.18 L 1122.51 113.00 L 1122.66 120.00 L 1122.37 121.00 L 1122.00 121.29 L 1109.00 121.28 L 1107.80 122.00 L 1107.62 126.00 L 1107.76 166.00 L 1107.38 167.00 L 1107.00 167.30 Z M 1180.00 167.23 L 1173.00 167.39 L 1172.00 167.27 L 1170.82 166.00 L 1170.43 165.00 L 1165.71 158.00 L 1165.32 157.00 L 1163.69 155.00 L 1163.38 154.00 L 1160.65 150.00 L 1160.27 149.00 L 1158.68 147.00 L 1158.22 146.00 L 1156.75 144.00 L 1156.33 143.00 L 1154.76 141.00 L 1154.40 140.00 L 1153.56 139.00 L 1152.48 137.00 L 1151.66 136.00 L 1151.19 135.00 L 1149.79 133.00 L 1149.42 132.00 L 1149.00 131.52 L 1148.00 131.14 L 1147.36 132.00 L 1147.63 166.00 L 1147.38 167.00 L 1147.00 167.32 L 1146.00 167.38 L 1139.00 167.35 L 1138.37 167.00 L 1138.00 166.54 L 1137.74 166.00 L 1137.73 165.00 L 1137.89 152.00 L 1137.72 139.00 L 1137.80 113.00 L 1138.00 112.71 L 1139.00 112.06 L 1147.00 112.20 L 1148.00 112.74 L 1148.53 114.00 L 1150.26 116.00 L 1150.73 117.00 L 1154.25 122.00 L 1154.61 123.00 L 1156.11 125.00 L 1156.51 126.00 L 1158.26 128.00 L 1158.57 129.00 L 1159.40 130.00 L 1160.45 132.00 L 1161.30 133.00 L 1161.58 134.00 L 1163.10 136.00 L 1163.48 137.00 L 1164.30 138.00 L 1165.40 140.00 L 1166.26 141.00 L 1166.68 142.00 L 1168.22 144.00 L 1168.65 145.00 L 1170.00 147.01 L 1171.00 147.71 L 1171.50 147.00 L 1171.45 113.00 L 1172.00 111.85 L 1179.00 111.73 L 1180.00 111.77 L 1180.25 112.00 L 1180.49 113.00 L 1180.47 166.00 L 1180.24 167.00 L 1180.00 167.23 Z M 1234.00 167.38 L 1200.00 167.37 L 1198.89 167.00 L 1198.64 166.00 L 1198.63 113.00 L 1199.00 112.30 L 1200.00 112.06 L 1204.00 112.20 L 1211.00 111.95 L 1217.00 112.19 L 1227.00 112.18 L 1233.00 111.71 L 1234.11 112.00 L 1234.50 113.00 L 1234.54 120.00 L 1234.26 121.00 L 1234.00 121.25 L 1210.00 121.25 L 1209.00 121.35 L 1208.46 122.00 L 1208.44 133.00 L 1209.00 133.64 L 1224.00 133.74 L 1224.28 134.00 L 1224.56 135.00 L 1224.58 139.00 L 1224.55 142.00 L 1224.27 143.00 L 1224.00 143.26 L 1212.00 143.22 L 1209.00 143.42 L 1208.50 144.00 L 1208.37 155.00 L 1208.42 157.00 L 1209.00 157.79 L 1210.00 158.16 L 1215.00 158.39 L 1231.00 158.34 L 1234.00 158.17 L 1235.08 159.00 L 1234.95 162.00 L 1235.15 166.00 L 1234.62 167.00 L 1234.00 167.38 Z M 1292.00 167.25 L 1291.00 167.42 L 1283.00 167.38 L 1282.00 167.25 L 1281.74 167.00 L 1276.92 158.00 L 1275.22 154.00 L 1271.20 146.00 L 1270.00 145.21 L 1262.00 145.26 L 1261.00 145.52 L 1260.61 146.00 L 1260.56 147.00 L 1260.60 166.00 L 1260.35 167.00 L 1260.00 167.32 L 1259.00 167.35 L 1253.00 167.35 L 1252.00 167.28 L 1251.62 167.00 L 1251.16 166.00 L 1251.19 123.00 L 1251.30 113.00 L 1252.00 112.10 L 1274.00 112.09 L 1279.00 112.65 L 1282.00 113.72 L 1285.00 115.59 L 1287.65 118.00 L 1289.28 120.00 L 1290.25 122.00 L 1291.26 126.00 L 1291.22 131.00 L 1290.16 135.00 L 1289.21 137.00 L 1287.00 139.71 L 1284.00 142.30 L 1283.00 142.58 L 1281.34 144.00 L 1281.76 146.00 L 1282.75 148.00 L 1283.40 149.00 L 1285.82 154.00 L 1288.11 158.00 L 1289.54 161.00 L 1290.21 162.00 L 1291.47 165.00 L 1292.24 166.00 L 1292.26 167.00 L 1292.00 167.25 Z M 1274.31 136.00 L 1278.00 135.30 L 1279.77 134.00 L 1281.40 132.00 L 1282.01 129.00 L 1281.99 128.00 L 1281.37 125.00 L 1280.60 124.00 L 1279.00 122.49 L 1277.00 121.53 L 1276.00 121.38 L 1262.00 121.20 L 1261.00 121.36 L 1260.48 122.00 L 1260.58 135.00 L 1261.00 135.61 L 1262.00 136.31 L 1272.00 136.28 L 1274.31 136.00 Z M 275.00 245.71 L 250.00 245.84 L 214.00 245.64 L 189.00 245.88 L 178.00 245.70 L 162.00 245.87 L 153.00 245.66 L 122.00 245.89 L 105.00 245.68 L 95.00 245.86 L 86.00 245.68 L 70.00 245.79 L 57.00 245.74 L 56.39 245.00 L 68.44 233.00 L 73.92 227.00 L 77.00 224.22 L 83.00 217.81 L 112.00 188.62 L 130.00 170.69 L 131.00 170.47 L 131.32 171.00 L 131.37 172.00 L 131.22 176.00 L 131.32 215.00 L 132.00 215.77 L 133.00 216.01 L 136.00 216.03 L 162.00 215.90 L 172.00 216.09 L 196.00 215.84 L 208.00 216.07 L 221.00 215.87 L 231.00 216.14 L 243.00 215.92 L 247.00 216.12 L 248.00 216.67 L 256.31 225.00 L 260.20 229.00 L 262.75 232.00 L 275.50 245.00 L 275.00 245.71 Z" fill="#A21C23" fill-rule="evenodd"/>
</svg>
